<svg width="100" xmlns="http://www.w3.org/2000/svg" height="100" id="screenshot-5b43e365-4c1f-80fe-8008-397b2f2753f7" viewBox="0 0 100 100" xmlns:xlink="http://www.w3.org/1999/xlink" fill="none" version="1.1"><g id="shape-5b43e365-4c1f-80fe-8008-397b2f2753f7" rx="0" ry="0"><g id="shape-5b43e365-4c1f-80fe-8008-3979d29a990d"><g class="fills" id="fills-5b43e365-4c1f-80fe-8008-3979d29a990d"><ellipse cx="50" cy="50" rx="50" ry="50" transform="matrix(1.000000, 0.000000, 0.000000, 1.000000, 0.000000, 0.000000)" style="fill: rgb(249, 250, 255); fill-opacity: 1;"/></g></g><g id="shape-5b43e365-4c1f-80fe-8008-3979b552775b" width="24" class="lucide lucide-clover-icon lucide-clover" height="24" rx="0" ry="0" style="fill: rgb(0, 0, 0);"><g id="shape-5b43e365-4c1f-80fe-8008-3979b552ad50" style="display: none;"><g class="fills" id="fills-5b43e365-4c1f-80fe-8008-3979b552ad50"><rect width="71" height="71" x="14.5" stroke-linejoin="round" transform="matrix(1.000000, 0.000000, 0.000000, 1.000000, 0.000000, 0.000000)" style="fill: none;" ry="0" fill="none" stroke-linecap="round" rx="0" y="14.5"/></g><g fill="none" stroke-linejoin="round" stroke-linecap="round" id="strokes-fc19d031-dd56-8054-8008-397d7fda0dcc-5b43e365-4c1f-80fe-8008-3979b552ad50" class="strokes"><g class="inner-stroke-shape" transform="matrix(1.000000, 0.000000, 0.000000, 1.000000, 0.000000, 0.000000)"><defs><clipPath id="inner-stroke-render-4-5b43e365-4c1f-80fe-8008-3979b552ad50-0"><use href="#stroke-shape-render-4-5b43e365-4c1f-80fe-8008-3979b552ad50-0"/></clipPath><rect rx="0" ry="0" x="14.5" y="14.5" width="71" height="71" id="stroke-shape-render-4-5b43e365-4c1f-80fe-8008-3979b552ad50-0" style="fill: none; stroke-width: 8; stroke: rgb(0, 0, 0); stroke-opacity: 1;"/></defs><use href="#stroke-shape-render-4-5b43e365-4c1f-80fe-8008-3979b552ad50-0" clip-path="url('#inner-stroke-render-4-5b43e365-4c1f-80fe-8008-3979b552ad50-0')"/></g></g></g><g id="shape-5b43e365-4c1f-80fe-8008-3979b552d387"><g class="fills" id="fills-5b43e365-4c1f-80fe-8008-3979b552d387"><path d="M62.33624267578125,37.663787841796875L20.41668701171875,79.58332824707031" fill="none" stroke-linejoin="round" stroke-linecap="round" style="fill: none;"/></g><g fill="none" stroke-linejoin="round" stroke-linecap="round" id="strokes-fc19d031-dd56-8054-8008-397d7fdb264d-5b43e365-4c1f-80fe-8008-3979b552d387" class="strokes"><g class="stroke-shape"><path d="M62.33624267578125,37.663787841796875L20.41668701171875,79.58332824707031" style="fill: none; stroke-width: 4; stroke: rgb(0, 0, 0); stroke-opacity: 1; stroke-linecap: round;"/></g></g></g><g id="shape-5b43e365-4c1f-80fe-8008-3979b55342bc"><g class="fills" id="fills-5b43e365-4c1f-80fe-8008-3979b55342bc"><path d="M26.392578125,50C24.0316162109375,48.02760314941406,22.94427490234375,44.91835021972656,23.56134033203125,41.904510498046875C24.17852783203125,38.890716552734375,26.400390625,36.458984375,29.34619140625,35.573089599609375C32.292236328125,34.687164306640625,35.48675537109375,35.490142822265625,37.66375732421875,37.663787841796875C35.490234375,35.48675537109375,34.687255859375,32.292236328125,35.57305908203125,29.34625244140625C36.45892333984375,26.400238037109375,38.8907470703125,24.178436279296875,41.9044189453125,23.561370849609375C44.91827392578125,22.944366455078125,48.02752685546875,24.031707763671875,50,26.39251708984375C51.97247314453125,24.031707763671875,55.08172607421875,22.944366455078125,58.0955810546875,23.561370849609375C61.1092529296875,24.178436279296875,63.54107666015625,26.400238037109375,64.42694091796875,29.34625244140625C65.312744140625,32.292236328125,64.509765625,35.48675537109375,62.33624267578125,37.663787841796875C64.51324462890625,35.490142822265625,67.707763671875,34.687164306640625,70.65380859375,35.573089599609375C73.599609375,36.458984375,75.82147216796875,38.890716552734375,76.43865966796875,41.904510498046875C77.05572509765625,44.91835021972656,75.9683837890625,48.02760314941406,73.607421875,50C75.9683837890625,51.97239685058594,77.05572509765625,55.08164978027344,76.43865966796875,58.095489501953125C75.82147216796875,61.109283447265625,73.599609375,63.54100036621094,70.65380859375,64.42692565917969C67.707763671875,65.31283569335938,64.51324462890625,64.50987243652344,62.33624267578125,62.33622741699219C64.509765625,64.51324462890625,65.312744140625,67.70774841308594,64.42694091796875,70.65374755859375C63.54107666015625,73.59976196289062,61.1092529296875,75.82156372070312,58.0955810546875,76.43862915039062C55.08172607421875,77.05563354492188,51.97247314453125,75.96829223632812,50,73.60749816894531C48.02752685546875,75.96829223632812,44.91827392578125,77.05563354492188,41.9044189453125,76.43862915039062C38.8907470703125,75.82156372070312,36.45892333984375,73.59976196289062,35.57305908203125,70.65374755859375C34.687255859375,67.70774841308594,35.490234375,64.51324462890625,37.66375732421875,62.33622741699219C34.25714111328125,65.46507263183594,28.95916748046875,65.23991394042969,25.83038330078125,61.83332824707031C22.70159912109375,58.4267578125,22.92681884765625,53.128814697265625,26.33331298828125,50" fill="none" stroke-linejoin="round" stroke-linecap="round" style="fill: none;"/></g><g fill="none" stroke-linejoin="round" stroke-linecap="round" id="strokes-fc19d031-dd56-8054-8008-397d7fdb9417-5b43e365-4c1f-80fe-8008-3979b55342bc" class="strokes"><g class="inner-stroke-shape"><defs><clipPath id="inner-stroke-render-6-5b43e365-4c1f-80fe-8008-3979b55342bc-0"><use href="#stroke-shape-render-6-5b43e365-4c1f-80fe-8008-3979b55342bc-0"/></clipPath><path d="M26.392578125,50C24.0316162109375,48.02760314941406,22.94427490234375,44.91835021972656,23.56134033203125,41.904510498046875C24.17852783203125,38.890716552734375,26.400390625,36.458984375,29.34619140625,35.573089599609375C32.292236328125,34.687164306640625,35.48675537109375,35.490142822265625,37.66375732421875,37.663787841796875C35.490234375,35.48675537109375,34.687255859375,32.292236328125,35.57305908203125,29.34625244140625C36.45892333984375,26.400238037109375,38.8907470703125,24.178436279296875,41.9044189453125,23.561370849609375C44.91827392578125,22.944366455078125,48.02752685546875,24.031707763671875,50,26.39251708984375C51.97247314453125,24.031707763671875,55.08172607421875,22.944366455078125,58.0955810546875,23.561370849609375C61.1092529296875,24.178436279296875,63.54107666015625,26.400238037109375,64.42694091796875,29.34625244140625C65.312744140625,32.292236328125,64.509765625,35.48675537109375,62.33624267578125,37.663787841796875C64.51324462890625,35.490142822265625,67.707763671875,34.687164306640625,70.65380859375,35.573089599609375C73.599609375,36.458984375,75.82147216796875,38.890716552734375,76.43865966796875,41.904510498046875C77.05572509765625,44.91835021972656,75.9683837890625,48.02760314941406,73.607421875,50C75.9683837890625,51.97239685058594,77.05572509765625,55.08164978027344,76.43865966796875,58.095489501953125C75.82147216796875,61.109283447265625,73.599609375,63.54100036621094,70.65380859375,64.42692565917969C67.707763671875,65.31283569335938,64.51324462890625,64.50987243652344,62.33624267578125,62.33622741699219C64.509765625,64.51324462890625,65.312744140625,67.70774841308594,64.42694091796875,70.65374755859375C63.54107666015625,73.59976196289062,61.1092529296875,75.82156372070312,58.0955810546875,76.43862915039062C55.08172607421875,77.05563354492188,51.97247314453125,75.96829223632812,50,73.60749816894531C48.02752685546875,75.96829223632812,44.91827392578125,77.05563354492188,41.9044189453125,76.43862915039062C38.8907470703125,75.82156372070312,36.45892333984375,73.59976196289062,35.57305908203125,70.65374755859375C34.687255859375,67.70774841308594,35.490234375,64.51324462890625,37.66375732421875,62.33622741699219C34.25714111328125,65.46507263183594,28.95916748046875,65.23991394042969,25.83038330078125,61.83332824707031C22.70159912109375,58.4267578125,22.92681884765625,53.128814697265625,26.33331298828125,50" id="stroke-shape-render-6-5b43e365-4c1f-80fe-8008-3979b55342bc-0" style="fill: none; stroke-width: 8; stroke: rgb(0, 0, 0); stroke-opacity: 1;"/></defs><use href="#stroke-shape-render-6-5b43e365-4c1f-80fe-8008-3979b55342bc-0" clip-path="url('#inner-stroke-render-6-5b43e365-4c1f-80fe-8008-3979b55342bc-0')"/></g></g></g><g id="shape-5b43e365-4c1f-80fe-8008-3979b55342bd"><g class="fills" id="fills-5b43e365-4c1f-80fe-8008-3979b55342bd"><path d="M37.66375732421875,37.663787841796875L62.33624267578125,62.33622741699219" fill="none" stroke-linejoin="round" stroke-linecap="round" style="fill: none;"/></g><g fill="none" stroke-linejoin="round" stroke-linecap="round" id="strokes-fc19d031-dd56-8054-8008-397d7fdc62e4-5b43e365-4c1f-80fe-8008-3979b55342bd" class="strokes"><g class="stroke-shape"><path d="M37.66375732421875,37.663787841796875L62.33624267578125,62.33622741699219" style="fill: none; stroke-width: 4; stroke: rgb(0, 0, 0); stroke-opacity: 1; stroke-linecap: round;"/></g></g></g></g></g></svg>