<!DOCTYPE svg PUBLIC "-//W3C//DTD SVG 1.1//EN" "http://www.w3.org/Graphics/SVG/1.1/DTD/svg11.dtd">
<!-- Uploaded to: SVG Repo, www.svgrepo.com, Transformed by: SVG Repo Mixer Tools -->
<svg width="800px" height="800px" viewBox="0 0 24 24" xmlns="http://www.w3.org/2000/svg" id="qr-code" class="icon glyph" fill="#000000" stroke="#000000" stroke-width="0.4800000000000001">
<g id="SVGRepo_bgCarrier" stroke-width="0"/>
<g id="SVGRepo_tracerCarrier" stroke-linecap="round" stroke-linejoin="round"/>
<g id="SVGRepo_iconCarrier">
<path d="M11,4V9a2,2,0,0,1-2,2H4A2,2,0,0,1,2,9V4A2,2,0,0,1,4,2H9A2,2,0,0,1,11,4Zm9-2H15a2,2,0,0,0-2,2V9a2,2,0,0,0,2,2h5a2,2,0,0,0,2-2V4A2,2,0,0,0,20,2ZM9,13H4a2,2,0,0,0-2,2v5a2,2,0,0,0,2,2H9a2,2,0,0,0,2-2V15A2,2,0,0,0,9,13Zm5,5h3a1,1,0,0,0,1-1V14a1,1,0,0,0-1-1H14a1,1,0,0,0-1,1v3A1,1,0,0,0,14,18Zm7-5a1,1,0,0,0-1,1v5a1,1,0,0,1-1,1H14a1,1,0,0,0,0,2h5a3,3,0,0,0,3-3V14A1,1,0,0,0,21,13Z" style="fill:#ffffff"/>
</g>
</svg>